<?xml version="1.0" standalone="no"?>
<!DOCTYPE svg PUBLIC "-//W3C//DTD SVG 20010904//EN"
 "http://www.w3.org/TR/2001/REC-SVG-20010904/DTD/svg10.dtd">
<svg version="1.0" xmlns="http://www.w3.org/2000/svg"
 width="1280.000000pt" height="715.000000pt" viewBox="0 0 1280.000000 715.000000"
 preserveAspectRatio="xMidYMid meet">
<metadata>
Created by potrace 1.15, written by Peter Selinger 2001-2017
</metadata>
<g transform="translate(0.000000,715.000000) scale(0.100000,-0.100000)"
fill="#000000" stroke="none">
<path d="M319 7135 c-8 -8 -43 -30 -79 -49 l-64 -34 37 -7 c20 -4 37 -11 37
-16 0 -4 -27 -22 -60 -40 -61 -32 -78 -57 -67 -98 4 -18 1 -20 -102 -62 -18
-7 -22 -15 -17 -32 4 -12 9 -53 13 -90 l6 -68 22 21 c12 11 25 17 28 13 4 -3
7 -34 7 -68 0 -72 25 -115 66 -115 19 0 24 -5 24 -25 0 -14 -4 -25 -10 -25 -5
0 -10 -15 -10 -33 0 -27 6 -36 32 -50 18 -9 52 -33 76 -53 l42 -37 0 32 c0 17
4 31 8 31 5 0 32 -20 61 -45 29 -25 63 -48 76 -51 23 -6 44 -34 25 -34 -6 0
-10 -15 -10 -34 0 -27 5 -36 23 -42 12 -3 50 -26 84 -50 35 -24 63 -42 63 -41
0 1 -4 17 -9 35 -13 43 1 42 68 -8 49 -37 67 -45 98 -41 9 1 10 -12 6 -48 -5
-48 -4 -50 21 -57 14 -3 53 -24 87 -45 33 -22 61 -39 63 -39 3 0 -1 13 -7 30
-6 16 -8 32 -4 36 4 4 34 -12 68 -35 34 -22 72 -41 84 -41 24 0 42 -26 23 -32
-15 -5 0 -68 16 -68 14 0 87 -37 131 -66 l27 -17 -7 36 c-4 21 -4 37 -1 37 3
0 30 -16 59 -34 28 -19 66 -36 82 -38 36 -4 47 -16 34 -39 -12 -24 6 -69 28
-69 17 0 31 -7 121 -62 l32 -20 -10 27 c-21 56 -13 57 66 10 32 -19 70 -35 86
-35 27 0 27 -1 22 -42 l-6 -43 92 -47 c96 -50 95 -50 73 10 -8 20 8 14 68 -23
32 -19 70 -36 86 -37 33 -3 45 -16 33 -38 -21 -39 14 -66 173 -138 4 -2 3 8
-3 23 -18 46 -11 47 55 10 36 -20 78 -38 93 -39 24 -3 27 -7 24 -39 -4 -42 -1
-45 101 -97 83 -43 82 -43 60 18 -8 18 4 15 65 -20 31 -17 72 -34 92 -38 34
-5 35 -6 32 -48 -3 -34 0 -43 15 -48 42 -15 81 -34 122 -59 l43 -27 -7 23 c-4
13 -10 30 -12 37 -9 21 20 13 77 -23 30 -19 66 -35 81 -35 32 0 45 -15 30 -34
-22 -26 4 -54 92 -99 63 -33 87 -41 82 -29 -26 63 -19 65 61 17 32 -19 71 -35
87 -35 26 0 28 -2 22 -29 -7 -31 8 -71 27 -71 6 0 42 -16 79 -35 38 -19 71
-35 74 -35 3 0 -1 13 -9 29 -9 16 -12 31 -9 35 3 3 31 -9 62 -26 30 -18 71
-34 91 -38 34 -5 35 -7 35 -49 0 -29 5 -46 15 -50 8 -4 48 -24 88 -44 69 -36
86 -35 63 3 -20 30 3 30 57 -1 32 -18 73 -35 92 -39 34 -5 35 -7 32 -46 l-3
-41 91 -45 c95 -48 94 -48 73 10 -8 21 18 13 70 -20 27 -17 66 -34 86 -37 35
-6 36 -8 36 -50 0 -42 1 -43 45 -60 25 -10 65 -30 89 -45 46 -29 48 -27 26 27
-11 25 6 21 82 -19 37 -19 75 -33 85 -31 19 5 20 4 22 -56 1 -35 4 -40 37 -51
20 -7 58 -25 84 -39 26 -15 50 -26 52 -23 2 2 -2 15 -8 30 -19 40 -5 41 53 5
29 -18 71 -35 93 -38 39 -6 40 -7 40 -48 l0 -43 88 -43 c89 -44 92 -43 72 6
-11 25 11 21 67 -13 27 -17 66 -34 86 -38 36 -8 37 -9 37 -51 0 -40 2 -43 37
-55 20 -7 57 -25 83 -40 50 -30 63 -29 46 2 -6 12 -11 23 -11 26 0 14 32 4 78
-25 27 -16 63 -31 80 -31 31 -1 49 -27 30 -46 -16 -16 9 -59 39 -66 28 -8 133
-64 133 -72 0 -2 -15 -55 -34 -117 -61 -201 -72 -357 -30 -428 13 -22 69 -61
186 -133 117 -70 166 -105 162 -115 -6 -19 17 -203 27 -215 8 -9 345 -146 359
-146 4 0 32 20 62 45 30 25 60 45 67 45 6 0 71 -30 144 -66 316 -159 625 -291
1429 -612 619 -248 798 -322 1061 -439 93 -41 170 -73 171 -71 2 2 17 24 35
51 18 26 35 47 39 47 17 0 32 -25 32 -51 0 -48 37 -74 200 -139 85 -34 389
-160 675 -280 972 -407 1243 -510 1342 -510 36 0 260 168 347 261 141 150 313
438 351 588 14 54 14 75 4 135 -33 201 -108 348 -282 556 -51 61 -86 111 -83
120 3 8 12 33 20 55 16 43 20 112 10 165 -6 26 -28 49 -113 117 -120 96 -350
251 -552 371 -125 75 -215 112 -272 112 -11 0 -50 24 -86 54 -101 82 -265 199
-494 351 l-209 139 6 261 c4 143 9 343 12 445 l6 185 -129 130 c-354 358 -735
619 -1130 775 -95 37 -113 48 -118 69 -17 72 -82 255 -116 326 -61 128 -151
257 -216 310 -32 25 -112 73 -178 105 -151 74 -288 112 -407 113 -86 1 -87 1
-200 -55 -62 -32 -143 -80 -179 -107 -87 -66 -218 -204 -314 -333 l-78 -103 6
110 c13 234 76 449 251 863 57 136 111 264 119 284 l16 37 -47 35 c-115 84
-274 151 -420 176 l-73 13 -30 -34 c-63 -72 -170 -245 -252 -406 -107 -212
-391 -851 -389 -878 0 -11 26 -175 57 -365 l57 -346 -52 -89 c-29 -50 -65
-116 -81 -147 -31 -61 -39 -66 -79 -43 -37 21 -42 18 -26 -14 9 -16 13 -31 10
-34 -3 -3 -38 10 -77 29 -39 19 -80 34 -89 34 -14 0 -17 5 -12 24 7 28 -11 66
-30 66 -8 0 -44 15 -82 34 -38 19 -70 33 -72 32 -1 -2 3 -15 9 -30 7 -14 10
-29 6 -32 -3 -3 -35 11 -72 31 -42 24 -74 36 -90 33 -25 -5 -41 22 -23 40 14
14 -9 62 -31 62 -11 0 -49 16 -85 35 -37 19 -69 35 -71 35 -3 0 2 -14 10 -31
9 -17 14 -34 10 -37 -3 -3 -33 9 -65 27 -33 18 -73 33 -90 33 -16 1 -31 6 -31
12 -1 6 -2 26 -3 45 0 19 -8 37 -16 41 -83 40 -170 79 -170 75 0 -2 5 -16 12
-30 6 -14 9 -28 6 -31 -3 -3 -33 8 -67 25 -33 17 -75 31 -92 31 -29 0 -31 2
-26 29 7 35 -1 71 -17 71 -6 0 -45 16 -85 35 -41 20 -76 34 -78 31 -3 -2 1
-14 7 -26 19 -35 3 -36 -66 -2 -35 18 -76 32 -89 32 -26 0 -28 6 -25 51 1 28
-22 59 -46 59 -8 0 -41 14 -74 30 -33 17 -62 30 -65 30 -3 0 1 -13 10 -30 14
-28 14 -30 -2 -30 -10 0 -34 10 -53 22 -19 12 -55 27 -80 34 -39 10 -45 15
-42 35 5 40 -7 69 -27 69 -11 0 -50 16 -87 35 -37 19 -68 35 -70 35 -2 0 2
-14 8 -31 6 -16 8 -33 5 -36 -3 -3 -31 9 -62 27 -31 18 -71 32 -91 33 -34 1
-35 3 -31 32 6 41 -8 75 -32 75 -11 0 -50 16 -87 36 -69 36 -71 36 -49 -18 10
-26 -7 -22 -70 13 -29 17 -68 31 -84 31 -17 1 -32 6 -32 12 -1 6 -2 26 -3 45
0 19 -8 37 -16 41 -89 43 -170 79 -170 74 0 -3 7 -18 15 -34 20 -40 5 -40 -66
0 -30 16 -69 30 -86 30 -35 0 -36 2 -33 62 1 33 -2 38 -27 44 -15 4 -59 22
-96 41 l-68 34 16 -32 c9 -17 14 -34 10 -37 -3 -3 -34 8 -69 26 -35 18 -78 32
-96 32 -30 0 -32 2 -27 29 10 48 -1 67 -46 81 -23 7 -61 24 -85 37 -49 29 -58
27 -41 -11 7 -14 10 -29 6 -32 -3 -3 -34 10 -70 30 -35 20 -75 36 -89 36 -28
0 -43 21 -27 37 13 13 -6 63 -24 63 -7 0 -45 16 -85 35 -79 37 -77 38 -55 -22
7 -19 -2 -16 -75 23 -39 20 -76 33 -89 31 -24 -4 -34 11 -26 41 6 26 -13 62
-34 62 -9 0 -48 16 -86 36 -57 29 -68 33 -62 18 26 -64 20 -66 -56 -24 -30 16
-69 30 -86 30 -34 0 -36 3 -33 57 1 27 -3 35 -27 44 -15 7 -57 25 -92 40 -35
16 -65 29 -67 29 -3 0 2 -13 11 -30 14 -27 14 -30 0 -30 -8 0 -41 14 -73 31
-39 21 -65 29 -84 25 -26 -5 -27 -4 -30 46 -3 49 -5 53 -33 59 -16 3 -58 20
-92 38 -35 17 -63 29 -63 26 0 -3 7 -19 15 -35 14 -27 14 -30 0 -30 -9 0 -37
12 -62 27 -25 14 -62 27 -82 28 -34 2 -36 5 -38 39 -2 51 -9 66 -33 66 -11 0
-50 14 -87 30 -36 17 -68 30 -70 30 -2 0 3 -13 11 -29 9 -16 13 -31 9 -34 -3
-3 -32 7 -64 23 -32 17 -74 30 -93 30 -35 0 -50 17 -40 44 9 24 -14 54 -48 61
-18 4 -59 18 -90 30 -62 25 -68 23 -42 -13 9 -13 13 -26 10 -29 -3 -4 -37 6
-75 22 -40 16 -80 26 -95 23 -27 -5 -37 7 -42 50 -4 35 -23 52 -58 52 -17 0
-56 7 -86 15 -73 20 -75 19 -51 -11 30 -38 18 -45 -41 -27 -62 18 -113 19
-132 4 -10 -8 -16 -9 -21 -2 -8 14 -109 81 -121 81 -6 0 -16 -7 -25 -15z m165
-164 c3 -5 -5 -11 -19 -13 -20 -4 -23 -3 -14 8 13 16 25 18 33 5z m366 -81 c0
-5 -5 -10 -11 -10 -5 0 -7 5 -4 10 3 6 8 10 11 10 2 0 4 -4 4 -10z m-614 -77
c-8 -15 -15 -23 -16 -16 0 6 -3 18 -6 26 -3 10 1 17 13 19 26 6 26 3 9 -29z
m20 -240 c17 -23 17 -33 0 -33 -7 0 -16 11 -18 25 -6 29 0 32 18 8z m2034
-293 c0 -5 -2 -10 -4 -10 -3 0 -8 5 -11 10 -3 6 -1 10 4 10 6 0 11 -4 11 -10z
m1420 -670 c0 -5 -2 -10 -4 -10 -3 0 -8 5 -11 10 -3 6 -1 10 4 10 6 0 11 -4
11 -10z m-1845 -70 c3 -5 1 -10 -4 -10 -6 0 -11 5 -11 10 0 6 2 10 4 10 3 0 8
-4 11 -10z m6772 -241 c76 -28 99 -55 137 -162 39 -113 126 -398 126 -416 0
-6 -10 -11 -21 -11 -20 0 -780 170 -788 176 -8 6 141 173 272 305 l135 136 56
-8 c30 -5 68 -14 83 -20z m-1198 -210 c20 -57 17 -58 -72 -31 -57 17 -57 17
-42 40 13 17 26 22 60 22 39 0 44 -3 54 -31z m-2314 -149 c3 -5 1 -10 -4 -10
-6 0 -11 5 -11 10 0 6 2 10 4 10 3 0 8 -4 11 -10z m-1180 -470 c3 -5 1 -10 -4
-10 -6 0 -11 5 -11 10 0 6 2 10 4 10 3 0 8 -4 11 -10z m350 -180 c3 -5 1 -10
-4 -10 -6 0 -11 5 -11 10 0 6 2 10 4 10 3 0 8 -4 11 -10z m1885 -1102 c0 -17
-20 -47 -20 -31 0 6 -3 18 -6 27 -4 11 -1 16 10 16 9 0 16 -6 16 -12z m4460
-1240 l174 -23 23 -40 c38 -67 64 -146 65 -198 l0 -50 116 6 c126 6 241 31
330 72 l55 25 36 -27 c20 -15 129 -116 243 -224 233 -222 338 -299 472 -347
48 -18 93 -32 101 -32 20 0 83 -57 101 -91 7 -15 14 -50 14 -76 0 -89 -66
-197 -248 -405 l-85 -98 -36 21 c-277 165 -642 339 -1278 609 -92 39 -103 46
-109 73 -9 44 -97 127 -174 164 -191 93 -306 143 -329 143 -14 -1 -37 -7 -51
-15 -23 -13 -27 -12 -51 17 l-27 32 108 211 109 210 102 88 102 89 31 -55 31
-55 175 -24z"/>
</g>
</svg>
